<?xml version="1.0" encoding="UTF-8"?><svg id="Layer_2" xmlns="http://www.w3.org/2000/svg" viewBox="0 0 642.53 296.79"><defs><style>.cls-1{fill:#181532;stroke-width:0px;}</style></defs><g id="Logo"><path class="cls-1" d="M84.69,102.79c-.65,5.97-7.1,12.91-15.49,12.91s-11.13-6.46-10.49-15.81l1.94-35.82c.48-10.33-2.26-17.43-11.13-17.43-13.07,0-26.62,20.33-30.98,45.83l-3.07,17.59c-.32,2.1-1.29,3.07-3.07,3.55l-8.23,2.1c-2.26.65-3.71-.65-3.39-3.23l8.07-55.83c1.29-8.88-5.49-7.26-5.49-11.13,0-2.26,1.45-3.39,9.04-6.78,5.16-2.26,7.58-2.58,9.68-2.58,2.26,0,3.39,1.29,3.07,3.55l-3.23,21.62c8.39-15.65,20.49-25.33,34.21-25.33s20.17,9.36,19.2,27.11l-1.94,35.98c-.16,3.39-.16,5.97,2.58,5.97,3.07,0,5.16-4.52,7.1-4.52.97,0,1.78.81,1.61,2.26Z"/><path class="cls-1" d="M99.86,99.88l6.45-43.25c1.29-8.55-5.49-7.58-5.49-11.62,0-1.78,1.13-3.39,9.04-6.29,6.13-2.26,8.07-2.74,10.17-2.74,2.26,0,3.39,1.45,3.07,3.71l-8.55,59.38c-.48,3.39,0,5.97,2.74,5.97,3.07,0,5.16-4.52,7.1-4.52.97,0,1.78.81,1.61,2.26-.64,5.97-7.1,12.91-15.49,12.91-8.88,0-12.1-6.46-10.65-15.81ZM109.05,15.33c.32-5.81,7.58-12.59,14.04-11.78,4.36.32,7.42,4.36,7.26,8.39-.48,5.65-7.75,11.94-14.04,11.46-4.36-.32-7.58-3.55-7.26-8.07Z"/><path class="cls-1" d="M138.26,82.78c0-25.82,20.01-47.28,44.86-47.28,20.82,0,30.01,15.01,28.08,26.62-.97,6.13-5.16,10-10,10-4.36-.16-7.42-2.9-6.78-8.55.81-8.23-1.45-20.49-15.33-20.49-15.65,0-25.5,17.59-25.5,34.53,0,15.65,9.36,26.95,24.85,26.95,11.3,0,19.69-4.36,26.3-10.49,3.39-2.9,6.13-.97,4.2,2.9-4.36,8.07-18.07,19.2-35.98,19.2-21.3,0-34.69-14.68-34.69-33.4Z"/><path class="cls-1" d="M219.26,83.42c0-25.5,21.3-47.92,46.63-47.92,21.14,0,33.08,14.85,33.08,31.95,0,26.95-20.17,48.73-45.67,48.73-20.33,0-34.05-13.72-34.05-32.76ZM282.35,69.06c0-13.72-4.52-26.3-18.56-26.3-18.56,0-28.56,21.14-28.72,38.4.16,15.17,5.97,27.59,20.65,27.59,17.1,0,26.62-20.98,26.62-39.7Z"/><path class="cls-1" d="M310.91,99.88l11.46-80.04c1.13-8.07-5.81-7.26-5.81-10.81,0-1.78,1.13-3.39,9.04-6.29,6.13-2.26,8.71-2.74,10.81-2.74,2.26,0,3.39,1.29,3.07,3.71l-13.72,95.36c-.64,3.39-.16,5.97,2.58,5.97,3.07,0,5.16-4.52,7.1-4.52.97,0,1.77.81,1.61,2.26-.65,5.97-7.1,12.91-15.33,12.91-9.2,0-12.26-6.13-10.81-15.81Z"/><path class="cls-1" d="M431.61,102.79c-.81,5.97-7.26,12.91-15.49,12.91-6.78,0-12.26-2.58-10.81-19.04-6.46,10.49-17.59,19.52-31.14,19.52s-26.3-9.84-26.3-28.72c0-27.27,18.07-51.96,41.95-51.96,7.42,0,14.52,3.39,18.56,3.39,5.16,0,8.39-3.39,11.78-3.39,3.07,0,3.71,2.26,3.39,6.62l-3.39,56.96c-.16,3.39,0,5.97,2.9,5.97,2.74,0,4.84-4.52,6.94-4.52.97,0,1.78.81,1.61,2.26ZM407.56,67.93l.32-4.68c.97-13.39-8.23-20.65-18.39-20.65-17.27,0-26.14,22.75-26.3,38.89,0,18.72,9.84,23.56,17.59,23.56,13.23,0,25.5-16.3,26.79-37.11Z"/><path class="cls-1" d="M0,275.97v-130.61h29.42v49.66h50.78v-49.66h29.42v130.61h-29.42v-53.97H29.42v53.97H0Z"/><path class="cls-1" d="M159.28,278.03c-6.62,0-12.65-1.28-18.08-3.84s-9.74-6.21-12.93-10.96c-3.19-4.75-4.78-10.24-4.78-16.49,0-5.37,1.15-10.05,3.47-14.05,2.31-4,5.4-7.06,9.28-9.18,2.87-1.62,6.12-2.81,9.74-3.56,3.62-.75,7.5-1.12,11.62-1.12h27.73v20.8h-23.61c-1.5,0-2.84.13-4.03.38-1.19.25-2.22.69-3.09,1.31-.88.63-1.56,1.4-2.06,2.34-.5.94-.75,1.97-.75,3.09,0,2.62,1.09,4.72,3.28,6.28,2.18,1.56,5.09,2.34,8.71,2.34s6.71-.72,9.65-2.16c2.93-1.43,5.28-3.4,7.03-5.9,1.75-2.5,2.62-5.37,2.62-8.62l6,15.93c-2.37,6.37-5.22,11.24-8.53,14.62-3.31,3.37-6.81,5.69-10.49,6.93-3.69,1.25-7.28,1.87-10.77,1.87ZM185.32,275.97l-2.25-10.87v-47.78c0-4.37-1.56-7.5-4.68-9.37-3.12-1.87-7-2.81-11.62-2.81-4.87,0-10.06.91-15.55,2.72-5.5,1.81-10.12,4.03-13.87,6.65l-11.99-19.86c7.37-4.87,14.52-8.27,21.46-10.21,6.93-1.94,14.4-2.9,22.39-2.9,13.12,0,23.39,3.22,30.83,9.65,7.43,6.44,11.15,15.15,11.15,26.14v58.65h-25.86Z"/><path class="cls-1" d="M222.98,275.97v-92.38h28.3v21.74h-3.75c1.5-6.25,3.87-11.08,7.12-14.52,3.25-3.44,6.9-5.84,10.96-7.22,4.06-1.37,8.03-2.06,11.9-2.06,10.74,0,19.11,2.97,25.11,8.9,6,5.94,9,13.96,9,24.08v61.46h-28.3v-50.97c0-6.62-1.16-11.43-3.47-14.43-2.31-3-6.03-4.5-11.15-4.5-4,0-7.28.94-9.84,2.81-2.56,1.87-4.47,4.78-5.72,8.71-1.25,3.94-1.87,9.03-1.87,15.27v43.1h-28.3Z"/><path class="cls-1" d="M323.61,275.97v-130.61h28.3v130.61h-28.3ZM385.82,275.97l-23.99-38.6-11.99,14.05v-35.04l30.54-32.79h35.79l-33.73,34.85,36.91,57.53h-33.54Z"/><path class="cls-1" d="M427.13,275.97v-76.76h28.29v76.76h-28.29Z"/><rect class="cls-1" x="464.19" y="161.99" width="31.66" height="31.66" rx="15.83" ry="15.83"/><path class="cls-1" d="M547.99,190.43c-6-5.93-14.37-8.9-25.11-8.9-3.87,0-7.96.38-11.9,2.06-6.11,2.6-10.4,7.98-14.37,11.49-4.24,3.75-9.64,6.52-15.33,6.52-4.88,0-9.36-1.68-12.93-4.48v99.67h28.3v-63.92c0-6.25.62-11.34,1.87-15.27,1.25-3.93,3.15-6.84,5.72-8.71,2.56-1.87,5.84-2.81,9.84-2.81,5.12,0,8.84,1.5,11.15,4.5,2.31,3,3.47,7.81,3.47,14.43v50.97h28.3v-61.46c0-10.12-3-18.14-9-24.08Z"/><path class="cls-1" d="M603,278.03c-7.25,0-13.49-1.03-18.74-3.09-5.25-2.06-9.62-4.53-13.12-7.4-3.5-2.87-6.37-5.43-8.62-7.68l19.11-16.86c2.12,2.62,4.9,5.37,8.34,8.24,3.44,2.88,7.84,4.31,13.21,4.31,3.75,0,6.62-.72,8.62-2.16,2-1.43,3-2.97,3-4.59,0-1.5-.69-2.75-2.06-3.75-1.38-1-3.19-1.9-5.43-2.72-2.25-.81-4.81-1.59-7.68-2.34-3.5-1-7.15-2.16-10.96-3.47-3.81-1.31-7.37-3.06-10.68-5.25-3.31-2.18-6-4.97-8.06-8.34-2.06-3.37-3.09-7.62-3.09-12.74,0-8.62,3.34-15.55,10.03-20.8,6.68-5.25,15.52-7.87,26.51-7.87,7.62,0,14.52,1.44,20.71,4.31,6.18,2.88,11.08,7,14.71,12.37l-17.24,13.87c-2.25-3-5.06-5.37-8.43-7.12-3.37-1.75-6.87-2.62-10.49-2.62-2.75,0-5,.5-6.75,1.5-1.75,1-2.62,2.25-2.62,3.75,0,1,.4,1.87,1.22,2.62.81.75,2.28,1.47,4.4,2.15,2.12.69,5.06,1.53,8.81,2.53,3.62.88,7.43,1.94,11.43,3.19,4,1.25,7.78,2.97,11.34,5.15,3.56,2.19,6.47,5.09,8.71,8.71,2.25,3.62,3.37,8.18,3.37,13.68,0,6.37-1.66,11.99-4.97,16.86-3.31,4.87-7.93,8.68-13.87,11.43-5.94,2.75-12.84,4.12-20.71,4.12Z"/></g></svg>